<svg xmlns="http://www.w3.org/2000/svg" width="66" height="75" viewBox="0 0 66 75"><g><g><path fill="#fff" d="M60.994 38.881a6.608 6.608 0 0 1-8.351.803l-.176.035a46.048 46.048 0 0 0-17.401 7.425l1.056 1.055a6.58 6.58 0 0 1 0 9.317l-1.554 1.553 4.663 4.659a6.59 6.59 0 1 1-9.326 9.317l-10.882-10.87-1.554 1.553a6.596 6.596 0 0 1-9.327 0l-6.218-6.212a6.58 6.58 0 0 1 0-9.317l11.408-11.397a45.956 45.956 0 0 0 12.625-23.566l.035-.173c-1.707-2.515-1.508-6.036.803-8.345a6.607 6.607 0 0 1 9.327 0l24.872 24.847a6.591 6.591 0 0 1 0 9.316zm-35.753 10.87l-9.327-9.317-10.88 10.87a2.193 2.193 0 0 0 0 3.106l6.217 6.212c.859.858 2.25.858 3.11 0l10.88-10.87zm0 6.212l-3.109 3.106 10.881 10.87a2.197 2.197 0 0 0 3.109-3.106zm6.218 0l1.554-1.553c.86-.858.86-2.247 0-3.106l-1.452-1.45c-1.561 1.332-2.55 2.343-3.211 3.003zm17.37-19.916L29.634 16.869a50.274 50.274 0 0 1-10.704 20.366l9.514 9.504A50.353 50.353 0 0 1 48.83 36.047zm9.056-3.377L33.013 7.824a2.199 2.199 0 0 0-3.109 0 2.193 2.193 0 0 0 0 3.105l24.872 24.847a2.197 2.197 0 1 0 3.109-3.106zM17.469 51.304l-3.11 3.106a2.2 2.2 0 0 1-3.108 0 2.194 2.194 0 0 1 0-3.106L14.36 48.2a2.2 2.2 0 0 1 3.109 0 2.194 2.194 0 0 1 0 3.105zM48.417 2.191v4.392a2.197 2.197 0 0 1-2.198 2.196 2.197 2.197 0 0 1-2.198-2.196V2.19c0-1.214.984-2.197 2.198-2.197s2.198.983 2.198 2.197zM66.004 19.76a2.197 2.197 0 0 1-2.198 2.196h-4.397a2.197 2.197 0 0 1 0-4.392h4.397c1.214 0 2.198.982 2.198 2.195zm-5.04-11.624l-4.397 4.392a2.2 2.2 0 0 1-3.11 0 2.194 2.194 0 0 1 0-3.106l4.398-4.393a2.2 2.2 0 0 1 3.109 0 2.195 2.195 0 0 1 0 3.107z"/></g></g></svg>