<svg xmlns="http://www.w3.org/2000/svg" width="128" height="20" viewBox="0 0 128 20"><g><g><path fill="#f42267" d="M10.5 0l3.46 6.285L21 7.64l-4.9 5.239.89 7.122-6.49-3.049L4.012 20l.89-7.121L0 7.639 7.04 6.285 10.5 0m27 0l3.461 6.285L48 7.64l-4.9 5.239.89 7.122-6.49-3.049L31.012 20l.89-7.121L27 7.639l7.038-1.354L37.5 0m27 0l3.461 6.285L75 7.64l-4.9 5.239.89 7.122-6.49-3.049L58.012 20l.89-7.121L54 7.639l7.038-1.354L64.5 0m26 0l3.46 6.285L101 7.64l-4.9 5.239.89 7.122L90.5 16.95 84.011 20l.89-7.121L80 7.639l7.038-1.354L90.5 0m27 0l3.46 6.285L128 7.64l-4.9 5.239.89 7.122-6.489-3.049L111.011 20l.89-7.121-4.9-5.239 7.038-1.354L117.5 0"/></g></g></svg>